<?xml version="1.0" encoding="UTF-8"?>
<svg xmlns="http://www.w3.org/2000/svg" xmlns:xlink="http://www.w3.org/1999/xlink" width="400px" height="400px" viewBox="0 0 200 200" version="1.1">
<g id="surface1">
<path style=" stroke:none;fill-rule:evenodd;fill:rgb(0%,51.372552%,56.078434%);fill-opacity:1;" d="M 25.015625 0 L 175.113281 0 C 188.929688 0 200.132812 11.199219 200.132812 25.015625 L 200.132812 175.113281 C 200.132812 188.929688 188.929688 200.132812 175.113281 200.132812 L 25.015625 200.132812 C 11.199219 200.132812 0 188.929688 0 175.113281 L 0 25.015625 C 0 11.199219 11.199219 0 25.015625 0 Z M 25.015625 0 "/>
<path style=" stroke:none;fill-rule:evenodd;fill:rgb(100%,100%,99.607843%);fill-opacity:1;" d="M 46.125 25.015625 L 119.472656 25.015625 L 119.472656 56.421875 C 119.472656 59.875 122.273438 62.679688 125.726562 62.679688 L 157.132812 62.679688 L 157.132812 171.984375 C 157.132812 173.714844 155.734375 175.113281 154.007812 175.113281 L 46.125 175.113281 C 44.398438 175.113281 42.996094 173.714844 42.996094 171.984375 L 42.996094 28.140625 C 42.996094 26.414062 44.398438 25.015625 46.125 25.015625 Z M 59.457031 121.136719 L 140.671875 121.136719 L 140.671875 125.828125 L 59.457031 125.828125 Z M 59.457031 105.039062 L 140.671875 105.039062 L 140.671875 109.730469 L 59.457031 109.730469 Z M 59.457031 137.234375 L 140.671875 137.234375 L 140.671875 141.921875 L 59.457031 141.921875 Z M 76.695312 80.03125 L 76.683594 80.03125 C 74.617188 80.027344 72.140625 79.183594 70.25 77.359375 C 68.742188 75.898438 67.597656 73.828125 67.328125 71.082031 C 67.3125 70.875 67.296875 70.523438 67.28125 70.144531 C 67.269531 69.632812 67.257812 69.015625 67.257812 68.71875 C 67.230469 65.171875 68.375 62.859375 70.179688 61.390625 C 71.941406 59.960938 74.246094 59.4375 76.660156 59.390625 L 76.660156 59.382812 C 76.734375 59.382812 76.808594 59.382812 76.882812 59.390625 C 79.238281 59.460938 81.484375 59.992188 83.203125 61.390625 C 85.011719 62.859375 86.15625 65.171875 86.128906 68.71875 C 86.125 69.015625 86.117188 69.632812 86.101562 70.144531 C 86.09375 70.523438 86.078125 70.875 86.054688 71.082031 C 85.78125 73.90625 84.726562 75.980469 83.226562 77.429688 C 81.472656 79.121094 79.15625 79.90625 76.773438 80.023438 L 76.773438 80.027344 C 76.746094 80.03125 76.71875 80.03125 76.695312 80.03125 Z M 66.933594 75.6875 C 64.960938 76.800781 63.257812 78.457031 61.976562 80.480469 C 60.394531 82.984375 59.457031 86.0625 59.457031 89.367188 L 59.457031 89.617188 C 59.457031 90.699219 59.851562 91.699219 60.492188 92.4375 C 61.183594 93.242188 62.15625 93.742188 63.25 93.742188 L 90.140625 93.742188 C 91.226562 93.742188 92.203125 93.242188 92.898438 92.4375 C 93.53125 91.699219 93.929688 90.699219 93.929688 89.617188 L 93.929688 89.367188 C 93.929688 86.085938 93.007812 83.03125 91.445312 80.539062 C 90.179688 78.507812 88.484375 76.84375 86.515625 75.71875 C 85.992188 76.789062 85.292969 77.773438 84.398438 78.640625 C 79.039062 83.808594 70.28125 82.160156 66.933594 75.6875 Z M 125.726562 59.550781 C 124 59.550781 122.601562 58.148438 122.601562 56.421875 L 122.601562 28.171875 C 122.601562 26.429688 123.976562 25.015625 125.726562 25.015625 C 126.601562 25.015625 127.390625 25.375 127.957031 25.953125 L 156.21875 54.210938 C 157.4375 55.433594 157.4375 57.414062 156.21875 58.632812 C 155.609375 59.242188 154.804688 59.550781 154.007812 59.550781 Z M 100.023438 90.054688 L 140.296875 90.054688 L 140.296875 94.746094 L 100.023438 94.746094 Z M 114.546875 78.945312 L 118.75 80.273438 C 118.101562 82.625 117.03125 84.367188 115.53125 85.507812 C 114.035156 86.640625 112.125 87.210938 109.820312 87.210938 C 106.96875 87.210938 104.617188 86.238281 102.78125 84.289062 C 100.945312 82.335938 100.023438 79.671875 100.023438 76.289062 C 100.023438 72.710938 100.949219 69.933594 102.796875 67.953125 C 104.640625 65.972656 107.070312 64.984375 110.085938 64.984375 C 112.710938 64.984375 114.851562 65.757812 116.492188 67.3125 C 117.472656 68.230469 118.203125 69.554688 118.695312 71.273438 L 114.394531 72.300781 C 114.144531 71.183594 113.613281 70.304688 112.804688 69.65625 C 111.996094 69.011719 111.015625 68.691406 109.867188 68.691406 C 108.273438 68.691406 106.976562 69.261719 105.984375 70.40625 C 104.992188 71.550781 104.5 73.402344 104.5 75.964844 C 104.5 78.683594 104.984375 80.621094 105.964844 81.773438 C 106.941406 82.929688 108.210938 83.503906 109.773438 83.503906 C 110.929688 83.503906 111.921875 83.140625 112.75 82.402344 C 113.585938 81.671875 114.179688 80.515625 114.546875 78.945312 Z M 127.960938 86.847656 L 120.277344 65.347656 L 124.988281 65.347656 L 130.421875 81.261719 L 135.691406 65.347656 L 140.296875 65.347656 L 132.597656 86.847656 Z M 127.960938 86.847656 "/>
</g>
</svg>
